<svg xmlns="http://www.w3.org/2000/svg" width="1024" height="1024" viewBox="0 0 1024 1024" version="1.1" transform="matrix(1, 0, 0, 1, 0, 0)"><path d="M 327.324 202.626 C 315.082 206.997, 309.753 216.080, 307.029 237.218 C 302.838 269.748, 300.870 284.746, 299.973 291 C 299.459 294.575, 299.031 298.011, 299.020 298.635 C 299.009 299.262, 296.433 300.090, 293.263 300.486 C 259.903 304.654, 232.824 327.535, 222.828 360 L 220.519 367.500 220.227 508 L 219.935 648.500 221.528 655.714 C 229.086 689.954, 255.923 715.699, 289.685 721.097 C 293.983 721.785, 297.796 722.606, 298.157 722.924 C 298.903 723.579, 300.439 733.977, 305.477 772.500 C 309.989 807.003, 312.362 812.860, 324.455 819.334 L 328.500 821.500 414 821.801 C 530.664 822.213, 519.731 828.176, 528.543 759.325 C 533.862 717.768, 532.419 722.434, 540.228 721.567 C 549.071 720.586, 563.151 715.699, 572.227 710.460 L 579.954 706 709.076 706 L 838.198 706 841.660 704.357 C 843.564 703.453, 846.220 701.099, 847.561 699.125 L 850 695.536 850 616.822 L 850 538.108 871.930 537.804 L 893.859 537.500 896.680 535.408 C 903.263 530.525, 906.111 521.019, 902.889 514.684 C 902.278 513.483, 888.553 499.208, 872.389 482.962 L 843 453.423 843 416.580 L 843 379.736 840.903 376.344 C 837.378 370.639, 834.997 370, 817.300 370.004 C 793.702 370.009, 792 371.535, 792 392.681 L 792 405.461 752.250 365.934 C 684.673 298.737, 688.380 302, 679.631 302 C 670.834 302, 669.911 302.711, 639.977 332.559 C 607.194 365.249, 610.874 362.693, 608.031 354.750 C 597.602 325.607, 573.007 305.778, 541.257 300.918 L 533.270 299.695 531.539 284.598 C 523.444 213.977, 522.788 211.677, 508.590 204.186 L 503.500 201.500 417.500 201.318 C 343.500 201.161, 330.917 201.343, 327.324 202.626 M 290 329.579 C 271.606 334.419, 257.237 347.842, 251.116 365.902 L 248.541 373.500 248.212 424.250 L 247.883 475 281.247 475 L 314.611 475 317.618 472.750 C 319.272 471.512, 333.903 457.221, 350.132 440.990 L 379.639 411.480 378.136 407.990 C 363.107 373.074, 416.248 347.360, 435.668 380.151 C 450.787 405.681, 426.142 438.398, 399.137 428.647 L 396.774 427.793 362.637 461.787 C 321.283 502.966, 331.783 498, 286.066 498 L 248 498 248 516.500 L 248 535 274.543 535 L 301.086 535 305.793 539.411 C 310.559 543.878, 328.523 562.100, 350.845 585.109 L 363.077 597.717 366.833 597.031 C 394.163 592.033, 410.833 628.579, 389.834 647.459 C 367.439 667.594, 331.950 642.989, 343.504 615.337 L 345.007 611.739 320.847 587.119 C 307.559 573.579, 295.520 561.490, 294.094 560.255 L 291.500 558.010 269.686 558.005 L 247.873 558 248.237 603.750 C 248.637 654.172, 248.575 653.624, 255.345 666.500 C 268.885 692.252, 279.043 695, 360.684 695 L 422 695 422 648.807 L 422 602.614 402.283 582.807 L 382.566 563 375.479 563 C 351.888 563, 339.914 535.695, 356.163 518.951 C 374.062 500.508, 402.423 514.600, 400.707 541.085 L 400.150 549.684 411.075 560.575 L 422 571.466 422 543.780 L 422 516.094 418.250 514.318 C 388.968 500.449, 398.816 454.311, 431.500 452.245 C 465.723 450.082, 479.392 498.495, 448.944 514.029 L 445 516.041 445 542.261 L 445 568.481 471 542.382 L 497 516.282 497 485.661 L 497 455.041 493.250 453.122 C 463.282 437.791, 475.531 391.385, 509.500 391.557 C 543.605 391.731, 554.173 439.075, 523.384 453.757 L 520 455.370 519.955 487.935 C 519.900 527.808, 524.703 518.556, 481.250 562.497 L 445 599.154 445 647.077 L 445 695 451.947 695 L 458.893 695 459.197 664.170 L 459.500 633.340 462.128 629.920 C 463.574 628.039, 481.237 609.947, 501.378 589.715 L 538 552.930 538 537.676 C 538 524.397, 537.741 521.915, 536 518.500 C 525.190 497.298, 557.680 479.960, 571.347 499.637 C 578.340 509.705, 573.396 525.855, 562.482 528.594 L 560 529.217 559.985 544.858 C 559.966 563.740, 565.519 555.855, 520.173 601.391 L 482 639.725 482 667.442 L 482 695.158 511.250 694.816 L 540.500 694.474 547.500 691.586 C 566.795 683.626, 579.433 668.849, 583.496 649.500 C 585.696 639.018, 585.696 383.982, 583.496 373.500 C 578.977 351.976, 562.015 334.517, 540.754 329.504 C 531.489 327.320, 298.321 327.389, 290 329.579 M 678.168 335.896 C 677.495 336.312, 662.332 350.979, 644.472 368.489 L 612 400.325 612 525.534 L 612 650.744 609.594 660.226 C 608.271 665.442, 606.237 671.575, 605.074 673.855 L 602.959 678 711.280 678 C 840.711 678, 821.999 691.511, 822.004 598.050 L 822.007 520.500 823.956 517.304 C 827.544 511.419, 829.868 510.628, 845.289 510.036 L 859.276 509.500 848.888 499.698 C 843.175 494.308, 829.947 481.483, 819.494 471.198 C 809.041 460.914, 790.591 442.817, 778.494 430.983 C 766.397 419.148, 739.963 393.177, 719.750 373.268 C 682.245 336.326, 680.300 334.578, 678.168 335.896 M 403.763 387.565 C 396.252 391.641, 396.469 402.605, 404.138 406.572 C 414.999 412.188, 424.321 397.037, 415.083 388.782 C 411.601 385.671, 407.972 385.281, 403.763 387.565 M 502.659 415.054 C 492.510 423.037, 502.566 439.413, 513.989 433.506 C 518.037 431.413, 520 428.203, 520 423.677 C 520 415.180, 509.277 409.848, 502.659 415.054 M 429.388 473.934 C 422.521 476.860, 420.682 487.033, 426.106 492.099 C 433.209 498.734, 444 494.207, 444 484.593 C 444 476.694, 436.224 471.021, 429.388 473.934 M 370.571 532.571 C 368.422 534.721, 368.569 540.300, 370.829 542.345 C 375.122 546.230, 382 543.111, 382 537.277 C 382 532.147, 374.205 528.938, 370.571 532.571 M 368.500 616.716 C 359.812 618.817, 359.109 630.700, 367.437 634.672 L 370.785 636.268 374.642 634.384 C 382.717 630.441, 378.978 612.746, 370.782 616.116 C 370.627 616.180, 369.600 616.450, 368.500 616.716" stroke="none" fill="#25be67" fill-rule="evenodd"/></svg>